<svg width="8" height="8" viewBox="0 0 8 8" fill="none" xmlns="http://www.w3.org/2000/svg">
<path fill-rule="evenodd" clip-rule="evenodd" d="M6.41001 5.08626L5.56335 4.9896C5.36001 4.96626 5.16001 5.03626 5.01668 5.1796L4.40335 5.79293C3.46001 5.31293 2.68668 4.54293 2.20668 3.59626L2.82335 2.9796C2.96668 2.83626 3.03668 2.63626 3.01335 2.43293L2.91668 1.59293C2.87668 1.25626 2.59335 1.00293 2.25335 1.00293H1.67668C1.30001 1.00293 0.98668 1.31626 1.01001 1.69293C1.18668 4.5396 3.46335 6.81293 6.30668 6.9896C6.68335 7.01293 6.99668 6.6996 6.99668 6.32293V5.74626C7.00001 5.4096 6.74668 5.12626 6.41001 5.08626Z" fill="#363636"/>
</svg>
