<svg width="379" height="596" viewBox="0 0 379 596" fill="none" xmlns="http://www.w3.org/2000/svg">
<g clip-path="url(#clip0)">
<path d="M362.064 95.4958C340.433 117.341 305.361 117.341 283.729 95.4948C262.098 73.6492 262.098 38.2308 283.729 16.3837C305.361 -5.46168 340.431 -5.46168 362.064 16.3864C383.694 38.2292 383.696 73.6492 362.064 95.4958Z" fill="#F5B81C"/>
<path d="M365.83 100.662L377.377 74.3273L372.965 68.1035L365.83 100.662Z" fill="#904920"/>
<path d="M342.73 -1.24512L331.283 17.809L297.633 34.6277L281.466 12.5956L342.73 -1.24512Z" fill="#FBCE2C"/>
<path d="M348.013 80.6657L307.216 114.314L284.167 61.1104L348.013 80.6657Z" fill="#F3981F"/>
<path d="M358.26 92.4298L348.013 80.665L307.216 114.313L358.26 92.4298Z" fill="#A34F24"/>
<path d="M348.095 81.2276L330.402 14.499L344.323 21.6743L355.328 27.2511L382.314 41.1358L348.095 81.2276Z" fill="#E27E26"/>
<path d="M330.402 14.499L348.013 80.6653L284.167 61.11L330.402 14.499Z" fill="#ECA821"/>
<path d="M381.559 40.6718L341.871 -1.34766L330.402 14.4993L343.812 22.7114L355.328 27.2514L381.559 40.6718Z" fill="#F09121"/>
<path d="M382.115 40.6719L374.551 71.9945L358.26 92.4304L348.013 80.6657L382.115 40.6719Z" fill="#DC7427"/>
<path d="M307.216 114.314L279.071 95.7882L261.809 61.6457L284.167 61.1104L307.216 114.314Z" fill="#A34E24"/>
<path d="M330.402 14.499L284.327 61.4639L279.753 44.6589L277.219 35.9807L281.466 12.5957L296.874 13.2662L330.402 14.499Z" fill="#FCDB43"/>
<path d="M284.327 61.4639L261.809 61.6453L281.466 12.5957L277.373 35.9894L280.028 44.4932L284.327 61.4639Z" fill="#FAB719"/>
<path d="M342.621 -1.38086L366.913 16.4787L355.327 27.2513L342.621 -1.38086Z" fill="#D95B26"/>
<path d="M366.913 16.4785L382.428 41.4458L355.327 27.2511L366.913 16.4785Z" fill="#E37D25"/>
<path d="M279.071 95.7882L284.454 61.4443L261.762 61.6413L279.071 95.7882Z" fill="#EA7D24"/>
<path d="M330.402 14.499L314.399 40.2807L310.65 28.571L330.402 14.499Z" fill="#FFC541"/>
<path d="M370.93 53.7627L355.586 49.9385L349.448 50.4118L348.013 80.6653L370.93 53.7627Z" fill="#ECA92A"/>
<path d="M382.419 40.8643L370.93 53.7626L355.586 49.9384L382.419 40.8643Z" fill="#E06926"/>
<path d="M370.93 53.7627L368 66.9249L348.013 80.6653L370.93 53.7627Z" fill="#D96D27"/>
<path d="M382.595 40.585L377.378 74.3277L368 66.9257L382.595 40.585Z" fill="#974021"/>
<path d="M358.26 92.43L365.769 100.9L374.551 71.9941L358.26 92.43Z" fill="#A34F24"/>
<path d="M365.83 100.662L337.333 112.918L340.111 103.01L365.83 100.662Z" fill="#9B4722"/>
<path d="M304.571 114.521L337.584 112.919L340.111 103.01L304.571 114.521Z" fill="#B45026"/>
<path d="M281.466 12.5957L296.874 13.2662L290.203 16.3032L280.947 18.8976L281.466 12.5957Z" fill="#FED730"/>
<path d="M281.466 12.5956L306.872 -0.518555L316.032 7.17642L281.466 12.5956Z" fill="#FDB61A"/>
<path d="M316.032 7.17676L296.874 13.2664L281.466 12.5959L316.032 7.17676Z" fill="#FCD031"/>
<path d="M281.466 12.5957L275.317 17.9188L277.855 21.4048L281.466 12.5957Z" fill="#F9BF50"/>
<path d="M343.35 -1.23145L316.032 7.17629L306.872 -0.518686L343.35 -1.23145Z" fill="#F7C22E"/>
<path d="M280.947 18.8977L270.323 30.7215L275.317 17.9189L280.947 18.8977Z" fill="#EFC276"/>
<path d="M261.762 61.6412L270.322 30.7217L272.733 34.3331L261.762 61.6412Z" fill="#FFF3B3"/>
<path d="M280.947 18.8975L282.869 27.7676L270.323 30.7213L280.947 18.8975Z" fill="#FDDA32"/>
<path d="M284.327 61.4638L301.475 66.4643L292.16 57.5254L284.327 61.4638Z" fill="#F5A31D"/>
<path d="M301.475 66.4643L296.859 90.4573L284.327 61.4639L301.475 66.4643Z" fill="#EE8E22"/>
<path d="M307.216 114.314L294.005 90.379L284.327 61.4639L307.216 114.314Z" fill="#EE9C21"/>
<path d="M358.26 92.4298L334.643 91.6376L348.013 80.665L358.26 92.4298Z" fill="#E38B25"/>
<path d="M348.014 80.665L340.111 103.009L306.965 114.409L348.014 80.665Z" fill="#E07926"/>
<path d="M279.071 95.7878L294.005 90.379L284.327 61.4639L279.071 95.7878Z" fill="#F9C434"/>
<path d="M323.785 73.2441L306.965 114.409L348.014 80.665L323.785 73.2441Z" fill="#E98B24"/>
<path d="M277.373 35.9894L269.218 34.08L270.447 30.5172L276.874 27.5391L280.638 30.1368L277.373 35.9894Z" fill="#FEECE0"/>
<path d="M280.638 30.1374L276.874 27.5396L282.868 27.7682L289.965 26.7598L280.638 30.1374Z" fill="#FDD323"/>
<path d="M301.988 24.3232L296.547 25.7983L299.249 32.3087L304.014 24.9609L301.988 24.3232Z" fill="#FDD97C"/>
<path d="M297.633 34.6279L296.326 43.4222L306.214 48.2568L297.633 34.6279Z" fill="#904920"/>
<path d="M296.326 43.4219L291.987 47.7407L306.214 48.2564L296.326 43.4219Z" fill="#FAD03A"/>
<path d="M310.65 28.5706L314.399 40.2802L306.214 48.2562L297.633 34.6274L299.25 32.3078L304.015 24.96L310.65 28.5706Z" fill="#FCD71F"/>
<path d="M289.965 26.7598L277.373 35.9899L280.638 30.1374L289.965 26.7598Z" fill="#FEE233"/>
<path d="M301.171 66.3782L292.159 57.5258L291.987 47.7412L306.214 48.2569L310.31 49.0777L305.992 56.8156L301.171 66.3782Z" fill="#F4B31B"/>
<path d="M310.31 49.078L314.399 40.2812L322.5 44.6196L310.31 49.078Z" fill="#F7C529"/>
<path d="M348.013 80.6657L332.57 54.9574L340.925 42.2988L350.119 47.1927L348.013 80.6657Z" fill="#EA9E22"/>
<path d="M322.5 44.6191L305.993 56.8155L310.31 49.0776L322.5 44.6191Z" fill="#FACA27"/>
<path d="M304.015 24.9604L330.402 14.499L310.65 28.571L304.015 24.9604Z" fill="#FCCF1E"/>
<path d="M301.988 24.3232L296.874 13.2666L330.402 14.4994L304.014 24.9608L301.988 24.3232Z" fill="#FBCC1E"/>
<path d="M289.965 26.7597L290.203 16.3037L280.947 18.8981L282.869 27.7682L289.965 26.7597Z" fill="#FCCB28"/>
<path d="M334.794 51.5875L355.586 49.9383L343.812 22.7109L334.794 51.5875Z" fill="#EFA120"/>
<path d="M343.812 22.7109L314.399 40.2804L322.5 44.6188L334.794 51.5875L343.812 22.7109Z" fill="#F5B81C"/>
<path d="M331.147 43.3965L334.794 51.5883L332.57 54.9575L322.5 44.6196L331.147 43.3965Z" fill="#F3BA27"/>
<path d="M334.794 51.5875L331.147 43.3957L343.812 22.7109L334.794 51.5875Z" fill="#F0B11D"/>
<path d="M355.585 49.9383L355.327 27.251L367.88 33.6731L355.585 49.9383Z" fill="#9E4422"/>
<path d="M332.57 54.9571L323.785 73.2445L322.5 44.6191L332.57 54.9571Z" fill="#EFA520"/>
<path d="M305.993 56.8154L301.171 66.3779L323.785 73.2444L305.993 56.8154Z" fill="#F5B71C"/>
<path d="M291.987 47.7412L284.327 61.4642L292.16 57.5258L291.987 47.7412Z" fill="#FCD679"/>
<path d="M296.326 43.4219L277.373 35.9893L291.987 47.7408L296.326 43.4219Z" fill="#DB9529"/>
<path d="M277.373 35.9894L297.633 34.6278L299.25 32.3082L296.548 25.7979L289.965 26.7592L277.373 35.9894Z" fill="#FCD22A"/>
<path d="M296.859 90.4572L323.785 73.2441L307.016 115.632L296.859 90.4572Z" fill="#E58124"/>
</g>
<path d="M175.82 358.976H209.762H243.705L248.132 362.613L247.769 456.341L243.705 459.688H209.762H175.82L171.754 456.341L171.393 362.613L175.82 358.976Z" fill="#C4C4C3"/>
<path d="M152.287 394.082C152.287 382.284 160.23 377.463 169.984 374.202C178.735 371.277 187.035 370.749 187.035 370.749C187.035 370.749 184.674 370.026 184.822 366.148C184.969 362.271 187.183 363.182 187.183 363.182C187.183 363.182 185.351 360.114 184.563 357.175C183.776 354.234 182.946 354.97 182.946 354.97C182.946 354.97 181.428 355.653 179.854 351.292C178.763 348.273 178.968 343.687 179.459 340.645C179.952 337.604 181.723 337.706 181.723 337.706L182.018 336.691C182.018 336.691 181.33 335.787 181.33 335.17C181.33 327.137 189.299 313.421 209.762 313.421C230.225 313.421 238.195 327.137 238.195 335.17C238.195 335.787 237.506 336.691 237.506 336.691L237.801 337.706C237.801 337.706 239.572 337.604 240.065 340.645C240.556 343.687 240.761 348.273 239.67 351.292C238.097 355.653 236.578 354.97 236.578 354.97C236.578 354.97 235.748 354.234 234.961 357.175C234.173 360.114 232.341 363.182 232.341 363.182C232.341 363.182 234.555 362.27 234.702 366.148C234.85 370.027 232.489 370.749 232.489 370.749C232.489 370.749 240.789 371.277 249.54 374.202C259.294 377.462 269.609 383.698 269.609 395.496L249.539 400.188L244.885 400.363L244.915 461.056C244.915 461.056 241.934 474.122 226.462 474.907C224.129 475.024 219.618 480.626 215.665 482.676C211.712 484.726 208.595 481.111 203.36 480.647C198.95 480.255 195.395 475.024 193.062 474.906C177.591 474.122 174.609 461.056 174.609 461.056L174.639 400.362L169.985 400.188L152.287 394.082Z" fill="#EEEEEE"/>
<path d="M212.221 560.615H244.422V564.43V570.245C244.422 570.245 245.717 596 228.322 596C212.221 596 212.221 569.576 212.221 569.576V564.43V560.615H212.221Z" fill="#EEEEEE"/>
<path d="M212.221 461.057C212.221 500.491 212.221 493.748 212.221 511.404C212.221 529.06 212.221 539.363 212.221 560.615H244.422C244.422 538.467 244.422 529.034 244.422 511.404C244.422 493.774 244.422 502.926 244.422 461.057H212.221Z" fill="#EEEEEE"/>
<path d="M244.422 556.799H212.221V564.428H244.422V556.799Z" fill="#454545"/>
<path d="M212.221 556.8L244.422 520.644L212.221 510.265V556.8Z" fill="#E0E0E0"/>
<path d="M212.221 510.264V484.24L244.422 520.644L212.221 510.264Z" fill="#E0E0E0"/>
<path d="M209.762 369.996C229.783 369.996 232.486 368.354 234.7 366.883C234.358 373.119 228.16 373.116 209.762 373.116C191.365 373.116 185.167 373.119 184.824 366.883C187.038 368.353 189.741 369.996 209.762 369.996Z" fill="#454545"/>
<path d="M209.762 316.844C243.41 316.844 234.555 354.666 230.081 363.577C230.081 363.577 224.028 365.996 209.762 365.996C195.497 365.996 189.444 363.577 189.444 363.577C184.97 354.666 176.115 316.844 209.762 316.844Z" fill="white"/>
<path d="M209.762 318.821C239.72 318.821 232.932 354.058 230.275 357.86C227.619 361.663 209.762 361.587 209.762 361.587C209.762 361.587 191.906 361.663 189.249 357.86C186.593 354.058 179.804 318.821 209.762 318.821Z" fill="#222222"/>
<path d="M244.787 334.945L209.762 329.566L237.506 370.001L244.787 334.945Z" fill="#282828"/>
<path d="M209.762 329.566L237.507 370.001L209.762 371.447L182.018 370.001L209.762 329.566Z" fill="#222222"/>
<path d="M209.762 306.148L244.787 334.944L209.762 329.565L174.738 334.944L209.762 306.148Z" fill="#303030"/>
<path d="M174.738 334.945L209.762 329.566L182.018 370.001L174.738 334.945Z" fill="#282828"/>
<path d="M269.541 462.436L293.648 454.916L291.502 447.611L267.396 455.131L269.541 462.436Z" fill="#454545"/>
<path d="M244.915 400.978C252.521 400.978 256.033 416.471 259.225 427.339C264.188 444.237 262.486 438.442 268.46 458.782L292.567 451.261C286.341 430.065 288.288 436.693 283.331 419.818C274.894 391.094 271.283 375.021 244.915 375.021V400.978Z" fill="#EEEEEE"/>
<path d="M294.901 480.66C295.378 482.285 294.6 483.45 293.339 483.89C292.027 484.348 290.506 483.918 289.999 482.189C289.005 478.804 285.782 468.343 285.782 468.343L285.041 468.541C285.041 468.541 288.946 481.837 289.331 483.147C290.577 487.388 284.603 488.803 283.397 484.699C282.468 481.532 279.251 470.314 279.251 470.314L278.374 470.593C278.374 470.593 279.798 475.97 281.477 482.012C282.341 484.954 281.286 486.304 279.781 486.756C278.278 487.206 276.647 486.656 275.804 483.781C274.116 478.037 268.461 458.781 268.461 458.781L292.568 451.26C292.568 451.26 298.715 472.19 299.87 476.124C300.348 477.749 299.44 478.955 298.179 479.394C296.866 479.853 295.503 479.374 294.995 477.645C294 474.259 291.582 466.533 291.582 466.533L290.813 466.741L294.901 480.66Z" fill="#C4C4C3"/>
<path d="M269.541 462.434L293.647 454.914L291.503 447.611L267.396 455.131L269.541 462.434Z" fill="#454545"/>
<path d="M169.854 374.285C159.228 374.285 158.848 363.178 158.057 351.852C156.651 331.706 150.616 323.258 147.629 318.853L126.774 333.406C132.821 341.224 134.109 342.564 135.532 356.706C137.457 375.827 140.677 400.242 169.854 400.242V374.285H169.854Z" fill="#EEEEEE"/>
<path d="M122.407 315.274C121.238 314.077 121.386 312.671 122.292 311.666C123.235 310.62 124.772 310.256 126.016 311.526C128.452 314.018 130.856 316.271 130.856 316.271L131.417 315.733C131.417 315.733 126.237 310.434 125.296 309.472C122.244 306.35 126.846 302.179 129.8 305.2C132.078 307.529 135.693 311.337 135.693 311.337L136.336 310.662C136.336 310.662 134.451 308.733 131.166 305.373C129.048 303.208 129.582 301.388 130.698 300.253C131.814 299.121 133.501 298.807 135.569 300.921C139.704 305.15 147.629 318.854 147.629 318.854L126.774 333.408C126.774 333.408 122.091 323.708 119.261 320.814C118.092 319.617 118.335 318.112 119.242 317.107C120.185 316.062 121.628 315.63 122.871 316.902C125.307 319.395 126.588 320.703 126.588 320.703L127.169 320.144L122.407 315.274Z" fill="#8E8E8E"/>
<path d="M150.098 321.606L128.849 336.565L124.698 330.248L145.946 315.289L150.098 321.606Z" fill="#454545"/>
<path d="M197.822 523.224C195.035 498.409 196.971 492.413 200.612 485.777C204.393 478.884 205.582 477.97 206.81 461.057H174.609C173.428 476.956 167.457 481.62 166.313 489.529C165.169 497.438 164.857 503.654 166.313 516.083V520.642L197.822 527.071V523.224Z" fill="#EEEEEE"/>
<path d="M197.822 527.073L166.313 520.644V523.714C166.313 523.714 163.766 535.252 163.591 541.806C163.407 548.745 166.084 556.8 175.16 556.8C189.101 556.8 197.822 535.74 197.822 535.74V530.854V527.073H197.822Z" fill="#EEEEEE"/>
<path d="M197.822 523.225L166.313 489.53L197.381 494.066L197.822 523.225Z" fill="#E0E0E0"/>
<path d="M197.381 494.065L203.36 480.647L166.313 489.53L197.381 494.065Z" fill="#E0E0E0"/>
<path d="M197.822 530.853L166.313 523.714V516.084L197.822 523.224V530.853Z" fill="#454545"/>
<path d="M209.762 386.757H189.102V413.727H209.762H230.423V386.757H209.762Z" fill="#C4C4C3"/>
<path d="M209.762 413.728H189.102L209.762 452.055L230.423 413.728H209.762Z" fill="#DEDDDD"/>
<path d="M209.762 388.784H190.852V408.658H209.762H228.672V388.784H209.762Z" fill="#EEEEEE"/>
<path d="M195.324 404.804L201.111 398.721V404.804H195.324Z" fill="white"/>
<path d="M201.111 398.721L195.324 404.804V398.721H201.111Z" fill="white"/>
<path d="M201.111 391.041L195.324 397.125V391.041H201.111Z" fill="white"/>
<path d="M195.324 397.125L201.111 391.041V397.125H195.324Z" fill="white"/>
<path d="M189.102 413.727L190.852 408.658L209.762 413.727H189.102Z" fill="#B2B3B3"/>
<path d="M224.201 404.804L218.413 398.721V404.804H224.201Z" fill="white"/>
<path d="M218.413 398.721L224.201 404.804V398.721H218.413Z" fill="white"/>
<path d="M230.423 413.727L228.672 408.658L209.762 413.727H230.423Z" fill="#B2B3B3"/>
<path d="M209.762 408.658H190.852L209.762 413.727L228.672 408.658H209.762Z" fill="#A09F9F"/>
<path d="M244.915 371.175L239.685 437.961L230.423 413.727L244.915 371.175Z" fill="#A09F9F"/>
<path d="M238.392 370L230.423 413.728L244.915 371.175L238.392 370Z" fill="#B2B3B3"/>
<path d="M209.762 452.055L239.685 437.961L230.423 413.728L209.762 452.055Z" fill="#8E8E8E"/>
<path d="M209.762 452.055L172.838 461.725L169.854 474.289L209.762 452.055Z" fill="#A09F9F"/>
<path d="M22.6386 205.389C12.2599 207.547 -2.29227 221.576 1.33042 240.086C4.27072 255.111 14.9682 256.232 16.6759 264.958C18.6446 275.017 -3.91678 281.103 0.599036 304.175C1.75721 310.091 2.83274 315.585 2.83274 315.585L15.588 312.934C15.588 312.934 14.5951 307.863 13.3549 301.523C10.4146 286.5 26.7217 281.434 23.2554 263.728C20.1144 247.681 13.0237 247.986 11.081 238.06C9.62536 230.621 19.1162 221.734 25.5742 220.391L30.8739 219.289L27.9371 204.288L22.6386 205.389Z" fill="#E4E4D8"/>
<path d="M2.70557 314.935L15.4608 312.284C15.4608 312.284 18.4419 327.514 19.3102 331.952C19.7441 334.17 18.9802 334.947 17.9413 335.177C16.9 335.407 16.1621 334.97 15.717 332.698C14.746 328.067 13.841 323.969 13.841 323.969L12.8759 324.167C12.8759 324.167 14.6179 332.801 15.0966 335.248C15.717 338.415 11.7071 339.58 11.066 336.304C10.8683 335.293 8.85888 325.026 8.85888 325.026L7.98346 325.232C7.98346 325.232 9.06076 331.251 9.57256 333.865C9.83406 335.201 9.37185 335.963 8.4439 336.119C7.55136 336.27 6.77984 335.752 6.53427 334.498C5.93983 331.459 2.70557 314.935 2.70557 314.935Z" fill="#DEDCCE"/>
<path d="M3.32816 318.115L2.08203 311.751L14.8385 309.101L16.0834 315.465" fill="#454546"/>
<path d="M18.176 214.453C19.5903 220.072 25.1527 223.444 30.6042 221.989C36.055 220.532 39.3289 214.799 37.9145 209.18C36.5025 203.564 30.9377 200.19 25.488 201.645C20.0372 203.102 16.764 208.837 18.176 214.453Z" fill="#C6C5B5"/>
<path d="M22.0505 213.52C22.9194 216.972 26.3361 219.042 29.6831 218.148C33.0313 217.253 35.0419 213.731 34.1724 210.281C33.3052 206.832 29.8879 204.763 26.5397 205.654C23.1945 206.551 21.1839 210.072 22.0505 213.52Z" fill="#454546"/>
<path d="M75.6573 168.263C86.4834 168.263 95.1432 177.394 95.1432 188.552C95.1432 199.709 86.4834 208.668 75.6573 208.668C64.8311 208.668 56.1714 199.709 56.1714 188.552C56.1714 177.395 64.8311 168.263 75.6573 168.263Z" fill="#222222"/>
<path d="M134.688 151.329C134.688 161.154 126.961 169.118 117.428 169.118C107.892 169.118 100.166 161.154 100.166 151.329C100.166 141.503 107.892 133.539 117.428 133.539C126.961 133.539 134.688 141.503 134.688 151.329Z" fill="#C6C5B5"/>
<path d="M117.344 137.459C109.839 137.459 103.76 143.728 103.757 151.462C103.757 159.194 109.839 165.462 117.344 165.462C124.847 165.462 130.927 159.194 130.927 151.462C130.927 143.728 124.847 137.459 117.344 137.459Z" fill="#454545"/>
<path d="M51.2335 151.329C51.2335 161.154 43.5064 169.118 33.9731 169.118C24.4379 169.118 16.7114 161.154 16.7114 151.329C16.7114 141.503 24.4379 133.539 33.9731 133.539C43.5064 133.539 51.2335 141.503 51.2335 151.329Z" fill="#C6C5B5"/>
<path d="M33.8898 137.459C26.3841 137.459 20.3058 143.728 20.3022 151.462C20.3022 159.194 26.3841 165.462 33.8898 165.462C41.392 165.462 47.4727 159.194 47.4727 151.462C47.4727 143.728 41.392 137.459 33.8898 137.459Z" fill="#454545"/>
<path d="M44.6604 103.885C44.7307 103.752 44.8039 103.623 44.8759 103.493C53.1779 88.2596 63.8706 78.9619 75.6572 78.9619C87.4438 78.9619 98.1359 88.2596 106.439 103.493C106.511 103.623 106.584 103.752 106.654 103.885C116.7 122.539 123.053 152.162 123.053 182.878H121.714H75.6572H29.6H28.2612C28.2612 152.162 34.6147 122.539 44.6604 103.885Z" fill="#E5E5D8"/>
<path d="M75.6572 78.9619C87.4438 78.9619 98.1359 88.2596 106.439 103.493L75.6572 135.216L44.8765 103.493C53.1785 88.2596 63.8706 78.9619 75.6572 78.9619Z" fill="#E5E5D8"/>
<path d="M106.439 103.491C106.511 103.622 106.584 103.75 106.654 103.884C116.7 122.537 123.053 152.161 123.053 182.877H121.714L75.6572 135.215L106.439 103.491Z" fill="#DDDDCE"/>
<path d="M44.8764 103.491C44.8044 103.622 44.7312 103.75 44.6609 103.884C34.6146 122.537 28.2617 152.161 28.2617 182.877H29.6005L75.6577 135.215L44.8764 103.491Z" fill="#DDDDCE"/>
<path d="M75.6573 135.216L121.714 182.877H75.6573H29.6001L75.6573 135.216Z" fill="#E5E5D8"/>
<path d="M55.8466 119.792H75.6577H95.4689C103.893 119.792 110.725 127.537 110.725 137.093C110.725 146.645 103.894 154.391 95.4689 154.391H75.6577H55.8466C47.4224 154.391 40.5908 146.645 40.5908 137.093C40.5908 127.537 47.4218 119.792 55.8466 119.792Z" fill="#222222"/>
<path d="M88.3652 147.172C88.3652 148.819 89.6604 150.153 91.2577 150.153C92.8551 150.153 94.1508 148.819 94.1508 147.172V129.343C94.1508 127.696 92.8551 126.36 91.2577 126.36C89.6604 126.36 88.3652 127.696 88.3652 129.343V147.172Z" fill="#EECC70"/>
<path d="M94.8985 125.651V151.09L87.6909 119.792L94.8985 125.651Z" fill="#FADF8D"/>
<path d="M94.8985 151.09L88.4211 153.667L87.6909 119.792L94.8985 151.09Z" fill="#EECC70"/>
<path d="M75.6573 119.792H84.0178L75.6573 132.93L67.2969 119.792H75.6573Z" fill="#FADF8D"/>
<path d="M62.9491 147.172C62.9491 148.819 61.654 150.153 60.0566 150.153C58.4593 150.153 57.1636 148.819 57.1636 147.172V129.343C57.1636 127.696 58.4593 126.36 60.0566 126.36C61.654 126.36 62.9491 127.696 62.9491 129.343V147.172Z" fill="#EECC70"/>
<path d="M56.4155 125.651V151.09L63.6231 119.792L56.4155 125.651Z" fill="#FADF8D"/>
<path d="M56.4155 151.09L62.8929 153.667L63.6231 119.792L56.4155 151.09Z" fill="#EECC70"/>
<path d="M127.715 204.073C138.303 204.073 161.139 215.966 162.25 247.976C163.36 279.984 146.651 307.881 146.651 307.881L144.981 311.392L133.294 305.493L134.964 301.982C134.964 301.982 151.09 274.947 152.205 251.925C153.32 228.903 134.303 219.377 127.715 219.377H122.31V204.074H127.715V204.073Z" fill="#E4E4D8"/>
<path d="M145.265 310.796L133.578 304.896C133.578 304.896 126.946 318.848 125.014 322.914C124.048 324.946 124.595 325.897 125.544 326.39C126.494 326.886 127.315 326.657 128.304 324.575C130.384 320.349 132.268 316.624 132.268 316.624L133.153 317.067C133.153 317.067 129.343 324.963 128.278 327.204C126.898 330.106 130.49 332.281 131.916 329.281C132.356 328.354 136.828 318.948 136.828 318.948L137.625 319.377C137.625 319.377 135.1 324.916 133.961 327.311C133.38 328.535 133.64 329.394 134.499 329.787C135.325 330.167 136.199 329.867 136.746 328.717C138.068 325.934 145.265 310.796 145.265 310.796Z" fill="#DEDCCE"/>
<path d="M143.879 313.711L146.651 307.881L134.964 301.981L132.192 307.811" fill="#454546"/>
<path d="M112.873 212.433C113.181 218.229 117.987 222.668 123.609 222.353C129.232 222.036 133.541 217.084 133.233 211.288C132.926 205.494 128.119 201.053 122.497 201.369C116.875 201.686 112.565 206.641 112.873 212.433Z" fill="#C6C5B5"/>
<path d="M116.85 212.309C117.039 215.869 119.991 218.595 123.443 218.4C126.897 218.207 129.544 215.163 129.354 211.604C129.166 208.047 126.213 205.321 122.76 205.513C119.308 205.71 116.662 208.752 116.85 212.309Z" fill="#454546"/>
<path d="M125.237 192.25C125.237 255.92 103.09 307.649 75.6573 307.649C48.2247 307.649 26.0771 255.92 26.0771 192.25H125.237Z" fill="#DDDDCE"/>
<path d="M106.439 226.926L104.304 268.627L75.6572 213.829L106.439 226.926Z" fill="#DDDDCE"/>
<path d="M125.198 199.454L119.051 246.413L128.66 288.792L104.304 268.627L106.439 226.926L125.198 199.454Z" fill="#D1D1C4"/>
<path d="M104.304 268.626L128.66 288.791L75.6572 316.247L104.304 268.626Z" fill="#C6C5B5"/>
<path d="M44.8765 226.926L47.0104 268.627L75.6572 213.829L44.8765 226.926Z" fill="#DDDDCE"/>
<path d="M26.1164 199.454L13.0459 246.413L22.6543 288.792L47.0101 268.627L44.8762 226.926L26.1164 199.454Z" fill="#D1D1C4"/>
<path d="M47.0102 268.626L22.6543 288.791L75.657 316.247L47.0102 268.626Z" fill="#C6C5B5"/>
<path d="M75.6573 199.454H125.198L106.439 226.926L75.6573 213.829L44.8765 226.926L26.1167 199.454H75.6573Z" fill="#E5E5D8"/>
<path d="M75.657 213.829L104.304 268.627H75.657H47.0103L75.657 213.829Z" fill="#FADF8D"/>
<path d="M75.657 268.626H104.304L75.657 316.247L47.0103 268.626H75.657Z" fill="#DDDDCE"/>
<path d="M55.2871 316.247H60.8826H68.0896H75.6573H83.225H90.432H96.0274L90.432 341.33L86.2414 326.744L75.6573 353.255L65.0731 326.744L60.8826 341.33L55.2871 316.247Z" fill="#E39C27"/>
<path d="M90.4317 316.247L75.657 353.255V316.247H90.4317Z" fill="#E39C27"/>
<path d="M96.0274 316.247L90.4319 341.33V316.247H96.0274Z" fill="#E39C27"/>
<path d="M90.4319 316.247V341.33L83.2249 316.247H90.4319Z" fill="#EBB246"/>
<path d="M60.8826 316.247L75.6572 353.255V316.247H60.8826Z" fill="#EBB246"/>
<path d="M55.2871 316.247L60.8826 341.33V316.247H55.2871Z" fill="#EBB246"/>
<path d="M60.8826 316.247V341.33L68.0896 316.247H60.8826Z" fill="#E39C27"/>
<path d="M63.7763 296.498L55.2871 316.248H75.6573L63.7763 296.498Z" fill="#454545"/>
<path d="M63.7763 296.498L55.2871 316.248H63.7763V296.498Z" fill="#222222"/>
<path d="M87.5382 296.498L96.0274 316.248H75.6572L87.5382 296.498Z" fill="#454545"/>
<path d="M87.5381 296.498L96.0272 316.248H87.5381V296.498Z" fill="#222222"/>
<path d="M75.6572 180.746H123.988V185.008H75.6572H27.3262V180.746H75.6572Z" fill="#454545"/>
<path d="M75.6571 192.208H125.567V199.454H75.6571H25.7476V192.208H75.6571Z" fill="#454545"/>
<path d="M75.6572 313.702H96.5409V318.959H75.6572H54.7734V313.702H75.6572Z" fill="#454545"/>
<path d="M63.3823 66.3789C63.3823 66.3789 77.3802 78.9478 78.1653 89.4897C72.2245 94.5574 72.2244 94.5574 63.6721 94.3828C75.9593 89.0833 57.4155 66.7458 57.4155 66.7458L63.3823 66.3789Z" fill="#E5E5D8"/>
<path d="M60.2302 71.3589C64.3455 71.3589 67.6816 67.9207 67.6816 63.6795C67.6816 59.4382 64.3455 56 60.2302 56C56.1149 56 52.7788 59.4382 52.7788 63.6795C52.7788 67.9207 56.1149 71.3589 60.2302 71.3589Z" fill="#E5E5D8"/>
<path d="M60.2305 67.9044C62.4947 67.9044 64.3302 66.0127 64.3302 63.6792C64.3302 61.3458 62.4947 59.4541 60.2305 59.4541C57.9663 59.4541 56.1309 61.3458 56.1309 63.6792C56.1309 66.0127 57.9663 67.9044 60.2305 67.9044Z" fill="#454545"/>
<path d="M126.781 319.603L123.608 316.358C122.44 315.163 122.586 313.758 123.494 312.752C124.436 311.706 125.972 311.34 127.217 312.612C129.652 315.104 130.468 315.731 130.468 315.731C131.818 317.111 131.525 318.722 130.583 319.669C129.638 320.614 128.041 320.892 126.781 319.603Z" fill="#C4C4C3"/>
<path d="M122.53 324.013C121.06 322.51 120.978 322.426 120.108 321.536C118.939 320.34 119.182 318.835 120.088 317.83C121.033 316.784 122.56 316.441 123.805 317.713C125.19 319.131 126.156 320.118 126.156 320.118C127.531 321.525 127.257 323.146 126.324 324.091C125.39 325.036 123.795 325.307 122.53 324.013Z" fill="#C4C4C3"/>
<path d="M138.184 303.454C136.859 302.098 137.871 303.132 136.752 301.989C134.685 299.874 132.997 300.189 131.881 301.321C130.766 302.454 130.231 304.276 132.349 306.441C133.678 307.8 133.858 307.983 133.858 307.983C135.501 309.665 137.435 309.404 138.532 308.287C139.629 307.171 139.889 305.197 138.184 303.454Z" fill="#C4C4C3"/>
<path d="M134.801 310.283C134.801 310.283 133.527 308.871 131.249 306.541C128.296 303.519 123.692 307.69 126.744 310.812C127.686 311.776 130.524 314.679 130.524 314.679C131.994 316.181 133.726 315.763 134.76 314.627C135.795 313.491 136.129 311.64 134.801 310.283Z" fill="#C4C4C3"/>
<defs>
<clipPath id="clip0">
<rect width="112" height="112" fill="white" transform="translate(267)"/>
</clipPath>
</defs>
</svg>
