<svg width="323" height="612" viewBox="0 0 323 612" fill="none" xmlns="http://www.w3.org/2000/svg">
<g clip-path="url(#clip0)">
<path d="M306.064 95.4958C284.433 117.341 249.361 117.341 227.729 95.4948C206.098 73.6492 206.098 38.2308 227.729 16.3837C249.361 -5.46168 284.431 -5.46168 306.064 16.3864C327.694 38.2292 327.696 73.6492 306.064 95.4958Z" fill="#F5B81C"/>
<path d="M309.83 100.662L321.378 74.3273L316.965 68.1035L309.83 100.662Z" fill="#904920"/>
<path d="M286.73 -1.24463L275.283 17.8095L241.633 34.6282L225.466 12.5961L286.73 -1.24463Z" fill="#FBCE2C"/>
<path d="M292.013 80.6652L251.216 114.314L228.167 61.1099L292.013 80.6652Z" fill="#F3981F"/>
<path d="M302.26 92.4303L292.013 80.6655L251.216 114.314L302.26 92.4303Z" fill="#A34F24"/>
<path d="M292.095 81.2281L274.402 14.4995L288.323 21.6748L299.328 27.2516L326.314 41.1363L292.095 81.2281Z" fill="#E27E26"/>
<path d="M274.402 14.4995L292.013 80.6658L228.167 61.1104L274.402 14.4995Z" fill="#ECA821"/>
<path d="M325.559 40.6718L285.871 -1.34766L274.402 14.4993L287.812 22.7114L299.328 27.2514L325.559 40.6718Z" fill="#F09121"/>
<path d="M326.115 40.6719L318.551 71.9945L302.26 92.4304L292.013 80.6657L326.115 40.6719Z" fill="#DC7427"/>
<path d="M251.216 114.314L223.071 95.7878L205.809 61.6452L228.167 61.1099L251.216 114.314Z" fill="#A34E24"/>
<path d="M274.402 14.499L228.327 61.4639L223.753 44.6589L221.219 35.9807L225.466 12.5957L240.874 13.2662L274.402 14.499Z" fill="#FCDB43"/>
<path d="M228.327 61.4639L205.809 61.6453L225.466 12.5957L221.373 35.9894L224.028 44.4932L228.327 61.4639Z" fill="#FAB719"/>
<path d="M286.621 -1.38086L310.913 16.4787L299.327 27.2513L286.621 -1.38086Z" fill="#D95B26"/>
<path d="M310.913 16.4785L326.428 41.4458L299.328 27.2511L310.913 16.4785Z" fill="#E37D25"/>
<path d="M223.071 95.7882L228.454 61.4443L205.762 61.6413L223.071 95.7882Z" fill="#EA7D24"/>
<path d="M274.402 14.4995L258.399 40.2812L254.65 28.5715L274.402 14.4995Z" fill="#FFC541"/>
<path d="M314.93 53.7632L299.585 49.939L293.448 50.4123L292.013 80.6658L314.93 53.7632Z" fill="#ECA92A"/>
<path d="M326.419 40.8647L314.931 53.7631L299.586 49.9389L326.419 40.8647Z" fill="#E06926"/>
<path d="M314.93 53.7627L312 66.9249L292.013 80.6653L314.93 53.7627Z" fill="#D96D27"/>
<path d="M326.595 40.5845L321.378 74.3272L312 66.9252L326.595 40.5845Z" fill="#974021"/>
<path d="M302.26 92.43L309.769 100.9L318.551 71.9941L302.26 92.43Z" fill="#A34F24"/>
<path d="M309.83 100.662L281.333 112.918L284.111 103.009L309.83 100.662Z" fill="#9B4722"/>
<path d="M248.571 114.521L281.584 112.919L284.111 103.01L248.571 114.521Z" fill="#B45026"/>
<path d="M225.466 12.5957L240.874 13.2662L234.203 16.3032L224.947 18.8976L225.466 12.5957Z" fill="#FED730"/>
<path d="M225.466 12.596L250.872 -0.518066L260.032 7.17691L225.466 12.596Z" fill="#FDB61A"/>
<path d="M260.032 7.17676L240.874 13.2664L225.466 12.5959L260.032 7.17676Z" fill="#FCD031"/>
<path d="M225.466 12.5957L219.317 17.9188L221.855 21.4048L225.466 12.5957Z" fill="#F9BF50"/>
<path d="M287.35 -1.23096L260.032 7.17678L250.872 -0.518198L287.35 -1.23096Z" fill="#F7C22E"/>
<path d="M224.947 18.8977L214.322 30.7215L219.317 17.9189L224.947 18.8977Z" fill="#EFC276"/>
<path d="M205.762 61.6412L214.322 30.7217L216.733 34.3331L205.762 61.6412Z" fill="#FFF3B3"/>
<path d="M224.947 18.8979L226.868 27.7681L214.322 30.7218L224.947 18.8979Z" fill="#FDDA32"/>
<path d="M228.327 61.4643L245.475 66.4648L236.16 57.5259L228.327 61.4643Z" fill="#F5A31D"/>
<path d="M245.475 66.4643L240.859 90.4573L228.327 61.4639L245.475 66.4643Z" fill="#EE8E22"/>
<path d="M251.216 114.314L238.005 90.379L228.327 61.4639L251.216 114.314Z" fill="#EE9C21"/>
<path d="M302.26 92.4303L278.644 91.6381L292.013 80.6655L302.26 92.4303Z" fill="#E38B25"/>
<path d="M292.014 80.6655L284.111 103.01L250.965 114.409L292.014 80.6655Z" fill="#E07926"/>
<path d="M223.071 95.7878L238.005 90.379L228.326 61.4639L223.071 95.7878Z" fill="#F9C434"/>
<path d="M267.785 73.2446L250.965 114.409L292.014 80.6655L267.785 73.2446Z" fill="#E98B24"/>
<path d="M221.373 35.9899L213.218 34.0805L214.447 30.5177L220.874 27.5396L224.638 30.1373L221.373 35.9899Z" fill="#FEECE0"/>
<path d="M224.638 30.1369L220.874 27.5391L226.868 27.7677L233.965 26.7593L224.638 30.1369Z" fill="#FDD323"/>
<path d="M245.988 24.3228L240.547 25.7979L243.249 32.3082L248.014 24.9604L245.988 24.3228Z" fill="#FDD97C"/>
<path d="M241.632 34.6279L240.326 43.4222L250.213 48.2568L241.632 34.6279Z" fill="#904920"/>
<path d="M240.326 43.4224L235.987 47.7412L250.214 48.2569L240.326 43.4224Z" fill="#FAD03A"/>
<path d="M254.65 28.571L258.399 40.2807L250.213 48.2567L241.632 34.6278L243.249 32.3083L248.014 24.9604L254.65 28.571Z" fill="#FCD71F"/>
<path d="M233.965 26.7593L221.373 35.9894L224.638 30.1369L233.965 26.7593Z" fill="#FEE233"/>
<path d="M245.171 66.3782L236.159 57.5258L235.987 47.7412L250.214 48.2569L254.31 49.0777L249.992 56.8156L245.171 66.3782Z" fill="#F4B31B"/>
<path d="M254.31 49.0775L258.399 40.2808L266.5 44.6191L254.31 49.0775Z" fill="#F7C529"/>
<path d="M292.013 80.6657L276.57 54.9574L284.925 42.2988L294.119 47.1927L292.013 80.6657Z" fill="#EA9E22"/>
<path d="M266.5 44.6191L249.993 56.8155L254.31 49.0776L266.5 44.6191Z" fill="#FACA27"/>
<path d="M248.015 24.9609L274.402 14.4995L254.65 28.5715L248.015 24.9609Z" fill="#FCCF1E"/>
<path d="M245.988 24.3232L240.874 13.2666L274.402 14.4994L248.014 24.9608L245.988 24.3232Z" fill="#FBCC1E"/>
<path d="M233.965 26.7593L234.203 16.3032L224.947 18.8976L226.869 27.7677L233.965 26.7593Z" fill="#FCCB28"/>
<path d="M278.794 51.588L299.586 49.9387L287.812 22.7114L278.794 51.588Z" fill="#EFA120"/>
<path d="M287.812 22.7114L258.399 40.2809L266.5 44.6192L278.794 51.588L287.812 22.7114Z" fill="#F5B81C"/>
<path d="M275.147 43.396L278.794 51.5878L276.57 54.9571L266.5 44.6191L275.147 43.396Z" fill="#F3BA27"/>
<path d="M278.794 51.588L275.147 43.3962L287.812 22.7114L278.794 51.588Z" fill="#F0B11D"/>
<path d="M299.586 49.9388L299.328 27.2515L311.881 33.6736L299.586 49.9388Z" fill="#9E4422"/>
<path d="M276.57 54.9571L267.785 73.2445L266.5 44.6191L276.57 54.9571Z" fill="#EFA520"/>
<path d="M249.993 56.8154L245.171 66.3779L267.785 73.2444L249.993 56.8154Z" fill="#F5B71C"/>
<path d="M235.987 47.7412L228.327 61.4642L236.16 57.5258L235.987 47.7412Z" fill="#FCD679"/>
<path d="M240.326 43.4219L221.373 35.9893L235.987 47.7408L240.326 43.4219Z" fill="#DB9529"/>
<path d="M221.373 35.9899L241.633 34.6283L243.25 32.3087L240.548 25.7983L233.965 26.7597L221.373 35.9899Z" fill="#FCD22A"/>
<path d="M240.859 90.4577L267.785 73.2446L251.016 115.633L240.859 90.4577Z" fill="#E58124"/>
</g>
<path d="M175.82 374.976H209.762H243.705L248.132 378.613L247.769 472.341L243.705 475.688H209.762H175.82L171.754 472.341L171.393 378.613L175.82 374.976Z" fill="#C4C4C3"/>
<path d="M152.287 410.083C152.287 398.285 160.23 393.463 169.984 390.202C178.735 387.278 187.035 386.749 187.035 386.749C187.035 386.749 184.674 386.027 184.822 382.149C184.969 378.271 187.183 379.183 187.183 379.183C187.183 379.183 185.351 376.115 184.563 373.175C183.776 370.234 182.946 370.97 182.946 370.97C182.946 370.97 181.428 371.653 179.854 367.292C178.763 364.273 178.968 359.688 179.459 356.646C179.952 353.604 181.723 353.706 181.723 353.706L182.018 352.692C182.018 352.692 181.33 351.787 181.33 351.171C181.33 343.137 189.299 329.421 209.762 329.421C230.225 329.421 238.195 343.137 238.195 351.171C238.195 351.787 237.506 352.692 237.506 352.692L237.801 353.706C237.801 353.706 239.572 353.604 240.065 356.646C240.556 359.688 240.761 364.273 239.67 367.292C238.097 371.653 236.578 370.97 236.578 370.97C236.578 370.97 235.748 370.234 234.961 373.175C234.173 376.115 232.341 379.183 232.341 379.183C232.341 379.183 234.555 378.27 234.702 382.149C234.85 386.027 232.489 386.749 232.489 386.749C232.489 386.749 240.789 387.278 249.54 390.202C259.294 393.463 269.609 399.698 269.609 411.497L249.539 416.189L244.885 416.364L244.915 477.057C244.915 477.057 241.934 490.123 226.462 490.907C224.129 491.024 219.618 496.627 215.665 498.677C211.712 500.726 208.595 497.112 203.36 496.647C198.95 496.256 195.395 491.024 193.062 490.906C177.591 490.122 174.609 477.056 174.609 477.056L174.639 416.363L169.985 416.188L152.287 410.083Z" fill="#EEEEEE"/>
<path d="M212.221 576.615H244.422V580.43V586.245C244.422 586.245 245.717 612 228.322 612C212.221 612 212.221 585.576 212.221 585.576V580.43V576.615H212.221Z" fill="#EEEEEE"/>
<path d="M212.221 477.057C212.221 516.491 212.221 509.748 212.221 527.404C212.221 545.06 212.221 555.363 212.221 576.615H244.422C244.422 554.467 244.422 545.034 244.422 527.404C244.422 509.774 244.422 518.926 244.422 477.057H212.221Z" fill="#EEEEEE"/>
<path d="M244.422 572.799H212.221V580.429H244.422V572.799Z" fill="#454545"/>
<path d="M212.221 572.8L244.422 536.644L212.221 526.265V572.8Z" fill="#E0E0E0"/>
<path d="M212.221 526.264V500.24L244.422 536.644L212.221 526.264Z" fill="#E0E0E0"/>
<path d="M209.762 385.996C229.783 385.996 232.486 384.354 234.7 382.883C234.358 389.119 228.16 389.117 209.762 389.117C191.365 389.117 185.167 389.119 184.824 382.883C187.038 384.354 189.741 385.996 209.762 385.996Z" fill="#454545"/>
<path d="M209.762 332.844C243.41 332.844 234.555 370.667 230.081 379.578C230.081 379.578 224.028 381.996 209.762 381.996C195.497 381.996 189.444 379.578 189.444 379.578C184.97 370.667 176.115 332.844 209.762 332.844Z" fill="white"/>
<path d="M209.762 334.821C239.72 334.821 232.932 370.058 230.275 373.86C227.619 377.662 209.762 377.586 209.762 377.586C209.762 377.586 191.906 377.662 189.249 373.86C186.593 370.058 179.804 334.821 209.762 334.821Z" fill="#222222"/>
<path d="M244.787 350.945L209.762 345.566L237.506 386.001L244.787 350.945Z" fill="#282828"/>
<path d="M209.762 345.566L237.507 386.001L209.762 387.447L182.018 386.001L209.762 345.566Z" fill="#222222"/>
<path d="M209.762 322.148L244.787 350.944L209.762 345.565L174.738 350.944L209.762 322.148Z" fill="#303030"/>
<path d="M174.738 350.945L209.762 345.566L182.018 386.001L174.738 350.945Z" fill="#282828"/>
<path d="M269.541 478.437L293.648 470.917L291.502 463.611L267.396 471.131L269.541 478.437Z" fill="#454545"/>
<path d="M244.915 416.978C252.521 416.978 256.033 432.471 259.225 443.339C264.188 460.237 262.486 454.442 268.46 474.782L292.567 467.261C286.341 446.065 288.288 452.693 283.331 435.818C274.894 407.094 271.283 391.021 244.915 391.021V416.978Z" fill="#EEEEEE"/>
<path d="M294.901 496.659C295.378 498.285 294.6 499.449 293.339 499.889C292.027 500.348 290.506 499.918 289.999 498.189C289.005 494.804 285.782 484.342 285.782 484.342L285.041 484.541C285.041 484.541 288.946 497.837 289.331 499.146C290.577 503.387 284.603 504.802 283.397 500.698C282.468 497.532 279.251 486.313 279.251 486.313L278.374 486.593C278.374 486.593 279.798 491.969 281.477 498.012C282.341 500.954 281.286 502.304 279.781 502.755C278.278 503.205 276.647 502.655 275.804 499.781C274.116 494.036 268.461 474.781 268.461 474.781L292.568 467.259C292.568 467.259 298.715 488.19 299.87 492.124C300.348 493.748 299.44 494.954 298.179 495.394C296.866 495.853 295.503 495.374 294.995 493.645C294 490.259 291.582 482.532 291.582 482.532L290.813 482.74L294.901 496.659Z" fill="#C4C4C3"/>
<path d="M269.541 478.434L293.647 470.914L291.503 463.611L267.396 471.131L269.541 478.434Z" fill="#454545"/>
<path d="M169.854 390.286C159.228 390.286 158.848 379.178 158.057 367.852C156.651 347.706 150.616 339.259 147.629 334.853L126.774 349.406C132.821 357.224 134.109 358.564 135.532 372.706C137.457 391.827 140.677 416.243 169.854 416.243V390.286H169.854Z" fill="#EEEEEE"/>
<path d="M122.407 331.274C121.238 330.078 121.386 328.671 122.292 327.667C123.235 326.621 124.772 326.257 126.016 327.527C128.452 330.019 130.856 332.271 130.856 332.271L131.417 331.733C131.417 331.733 126.237 326.435 125.296 325.472C122.244 322.351 126.846 318.179 129.8 321.201C132.078 323.53 135.693 327.337 135.693 327.337L136.336 326.662C136.336 326.662 134.451 324.734 131.166 321.374C129.048 319.209 129.582 317.388 130.698 316.254C131.814 315.122 133.501 314.808 135.569 316.922C139.704 321.15 147.629 334.855 147.629 334.855L126.774 349.408C126.774 349.408 122.091 339.709 119.261 336.814C118.092 335.618 118.335 334.112 119.242 333.108C120.185 332.062 121.628 331.631 122.871 332.902C125.307 335.395 126.588 336.703 126.588 336.703L127.169 336.145L122.407 331.274Z" fill="#8E8E8E"/>
<path d="M150.098 337.606L128.849 352.565L124.698 346.248L145.946 331.29L150.098 337.606Z" fill="#454545"/>
<path d="M197.822 539.224C195.035 514.409 196.972 508.413 200.612 501.777C204.393 494.884 205.582 493.97 206.81 477.057H174.609C173.428 492.956 167.457 497.62 166.313 505.529C165.169 513.438 164.857 519.654 166.313 532.083V536.642L197.822 543.071V539.224Z" fill="#EEEEEE"/>
<path d="M197.822 543.072L166.313 536.643V539.714C166.313 539.714 163.766 551.251 163.591 557.805C163.407 564.744 166.084 572.799 175.16 572.799C189.101 572.799 197.822 551.739 197.822 551.739V546.853V543.072H197.822Z" fill="#EEEEEE"/>
<path d="M197.822 539.224L166.313 505.53L197.381 510.065L197.822 539.224Z" fill="#E0E0E0"/>
<path d="M197.381 510.065L203.36 496.647L166.313 505.53L197.381 510.065Z" fill="#E0E0E0"/>
<path d="M197.822 546.853L166.313 539.714V532.084L197.822 539.224V546.853Z" fill="#454545"/>
<path d="M209.762 402.757H189.102V429.728H209.762H230.423V402.757H209.762Z" fill="#C4C4C3"/>
<path d="M209.762 429.728H189.102L209.762 468.055L230.423 429.728H209.762Z" fill="#DEDDDD"/>
<path d="M209.762 404.784H190.852V424.658H209.762H228.672V404.784H209.762Z" fill="#EEEEEE"/>
<path d="M195.324 420.805L201.111 414.721V420.805H195.324Z" fill="white"/>
<path d="M201.111 414.721L195.324 420.805V414.721H201.111Z" fill="white"/>
<path d="M201.111 407.042L195.324 413.125V407.042H201.111Z" fill="white"/>
<path d="M195.324 413.125L201.111 407.042V413.125H195.324Z" fill="white"/>
<path d="M189.102 429.728L190.852 424.659L209.762 429.728H189.102Z" fill="#B2B3B3"/>
<path d="M224.201 420.805L218.413 414.721V420.805H224.201Z" fill="white"/>
<path d="M218.413 414.721L224.201 420.805V414.721H218.413Z" fill="white"/>
<path d="M230.423 429.728L228.672 424.659L209.762 429.728H230.423Z" fill="#B2B3B3"/>
<path d="M209.762 424.659H190.852L209.762 429.728L228.672 424.659H209.762Z" fill="#A09F9F"/>
<path d="M244.915 387.175L239.685 453.962L230.423 429.728L244.915 387.175Z" fill="#A09F9F"/>
<path d="M238.392 386L230.423 429.728L244.915 387.176L238.392 386Z" fill="#B2B3B3"/>
<path d="M209.762 468.055L239.685 453.961L230.423 429.728L209.762 468.055Z" fill="#8E8E8E"/>
<path d="M209.762 468.055L172.838 477.725L169.854 490.289L209.762 468.055Z" fill="#A09F9F"/>
<path d="M22.6386 221.389C12.2599 223.547 -2.29227 237.576 1.33042 256.086C4.27072 271.111 14.9682 272.232 16.6759 280.958C18.6446 291.017 -3.91678 297.103 0.599036 320.175C1.75721 326.091 2.83274 331.585 2.83274 331.585L15.588 328.934C15.588 328.934 14.5951 323.863 13.3549 317.523C10.4146 302.5 26.7217 297.434 23.2554 279.728C20.1144 263.681 13.0237 263.986 11.081 254.06C9.62536 246.621 19.1162 237.734 25.5742 236.391L30.8739 235.289L27.9371 220.288L22.6386 221.389Z" fill="#E4E4D8"/>
<path d="M2.70557 330.934L15.4608 328.284C15.4608 328.284 18.4419 343.513 19.3102 347.951C19.7441 350.169 18.9802 350.947 17.9413 351.176C16.9 351.407 16.1621 350.969 15.717 348.698C14.746 344.066 13.841 339.969 13.841 339.969L12.8759 340.167C12.8759 340.167 14.6179 348.8 15.0966 351.247C15.717 354.415 11.7071 355.579 11.066 352.303C10.8683 351.292 8.85888 341.026 8.85888 341.026L7.98346 341.232C7.98346 341.232 9.06076 347.25 9.57256 349.865C9.83406 351.2 9.37185 351.962 8.4439 352.119C7.55136 352.27 6.77984 351.752 6.53427 350.497C5.93983 347.459 2.70557 330.934 2.70557 330.934Z" fill="#DEDCCE"/>
<path d="M3.32816 334.115L2.08203 327.751L14.8385 325.101L16.0834 331.465" fill="#454546"/>
<path d="M18.176 230.452C19.5903 236.071 25.1527 239.444 30.6042 237.988C36.055 236.531 39.3289 230.799 37.9145 225.179C36.5025 219.564 30.9377 216.189 25.488 217.644C20.0372 219.101 16.764 224.837 18.176 230.452Z" fill="#C6C5B5"/>
<path d="M22.0505 229.52C22.9194 232.971 26.3361 235.041 29.6831 234.147C33.0313 233.253 35.0419 229.731 34.1724 226.28C33.3052 222.832 29.8879 220.762 26.5397 221.654C23.1945 222.551 21.1839 226.071 22.0505 229.52Z" fill="#454546"/>
<path d="M75.6573 184.263C86.4834 184.263 95.1432 193.394 95.1432 204.552C95.1432 215.709 86.4834 224.668 75.6573 224.668C64.8311 224.668 56.1714 215.709 56.1714 204.552C56.1714 193.395 64.8311 184.263 75.6573 184.263Z" fill="#222222"/>
<path d="M134.688 167.329C134.688 177.154 126.961 185.117 117.428 185.117C107.892 185.117 100.166 177.154 100.166 167.329C100.166 157.502 107.892 149.539 117.428 149.539C126.961 149.539 134.688 157.502 134.688 167.329Z" fill="#C6C5B5"/>
<path d="M117.344 153.458C109.839 153.458 103.76 159.728 103.757 167.462C103.757 175.194 109.839 181.462 117.344 181.462C124.847 181.462 130.927 175.194 130.927 167.462C130.927 159.728 124.847 153.458 117.344 153.458Z" fill="#454545"/>
<path d="M51.2335 167.329C51.2335 177.154 43.5064 185.117 33.9731 185.117C24.4379 185.117 16.7114 177.154 16.7114 167.329C16.7114 157.502 24.4379 149.539 33.9731 149.539C43.5064 149.539 51.2335 157.502 51.2335 167.329Z" fill="#C6C5B5"/>
<path d="M33.8898 153.458C26.3841 153.458 20.3058 159.728 20.3022 167.462C20.3022 175.194 26.3841 181.462 33.8898 181.462C41.392 181.462 47.4727 175.194 47.4727 167.462C47.4727 159.728 41.392 153.458 33.8898 153.458Z" fill="#454545"/>
<path d="M44.6604 119.885C44.7307 119.751 44.8039 119.623 44.8759 119.492C53.1779 104.259 63.8706 94.9614 75.6572 94.9614C87.4438 94.9614 98.1359 104.259 106.439 119.492C106.511 119.623 106.584 119.751 106.654 119.885C116.7 138.538 123.053 168.162 123.053 198.878H121.714H75.6572H29.6H28.2612C28.2612 168.162 34.6147 138.538 44.6604 119.885Z" fill="#E5E5D8"/>
<path d="M75.6572 94.9614C87.4438 94.9614 98.1359 104.259 106.439 119.492L75.6572 151.216L44.8765 119.492C53.1785 104.259 63.8706 94.9614 75.6572 94.9614Z" fill="#E5E5D8"/>
<path d="M106.439 119.492C106.511 119.622 106.584 119.751 106.654 119.884C116.7 138.538 123.053 168.161 123.053 198.877H121.714L75.6572 151.215L106.439 119.492Z" fill="#DDDDCE"/>
<path d="M44.8764 119.492C44.8044 119.622 44.7312 119.751 44.6609 119.884C34.6146 138.538 28.2617 168.161 28.2617 198.877H29.6005L75.6577 151.215L44.8764 119.492Z" fill="#DDDDCE"/>
<path d="M75.6573 151.215L121.714 198.877H75.6573H29.6001L75.6573 151.215Z" fill="#E5E5D8"/>
<path d="M55.8466 135.792H75.6577H95.4689C103.893 135.792 110.725 143.536 110.725 153.092C110.725 162.644 103.894 170.391 95.4689 170.391H75.6577H55.8466C47.4224 170.391 40.5908 162.645 40.5908 153.092C40.5908 143.537 47.4218 135.792 55.8466 135.792Z" fill="#222222"/>
<path d="M88.3652 163.172C88.3652 164.819 89.6604 166.153 91.2577 166.153C92.8551 166.153 94.1508 164.819 94.1508 163.172V145.343C94.1508 143.696 92.8551 142.36 91.2577 142.36C89.6604 142.36 88.3652 143.696 88.3652 145.343V163.172Z" fill="#EECC70"/>
<path d="M94.8985 141.651V167.089L87.6909 135.792L94.8985 141.651Z" fill="#FADF8D"/>
<path d="M94.8985 167.089L88.4211 169.667L87.6909 135.792L94.8985 167.089Z" fill="#EECC70"/>
<path d="M75.6573 135.792H84.0178L75.6573 148.93L67.2969 135.792H75.6573Z" fill="#FADF8D"/>
<path d="M62.9491 163.172C62.9491 164.819 61.654 166.153 60.0566 166.153C58.4593 166.153 57.1636 164.819 57.1636 163.172V145.343C57.1636 143.696 58.4593 142.36 60.0566 142.36C61.654 142.36 62.9491 143.696 62.9491 145.343V163.172Z" fill="#EECC70"/>
<path d="M56.4155 141.651V167.089L63.6231 135.792L56.4155 141.651Z" fill="#FADF8D"/>
<path d="M56.4155 167.089L62.8929 169.667L63.6231 135.792L56.4155 167.089Z" fill="#EECC70"/>
<path d="M127.715 220.073C138.303 220.073 161.139 231.966 162.25 263.975C163.36 295.983 146.651 323.881 146.651 323.881L144.981 327.392L133.294 321.492L134.964 317.981C134.964 317.981 151.09 290.947 152.205 267.924C153.32 244.902 134.303 235.376 127.715 235.376H122.31V220.073H127.715V220.073Z" fill="#E4E4D8"/>
<path d="M145.265 326.796L133.578 320.896C133.578 320.896 126.946 334.848 125.014 338.914C124.048 340.946 124.595 341.897 125.544 342.39C126.494 342.886 127.315 342.657 128.304 340.575C130.384 336.349 132.268 332.624 132.268 332.624L133.153 333.067C133.153 333.067 129.343 340.963 128.278 343.204C126.898 346.106 130.49 348.281 131.916 345.281C132.356 344.354 136.828 334.948 136.828 334.948L137.625 335.377C137.625 335.377 135.1 340.916 133.961 343.311C133.38 344.535 133.64 345.394 134.499 345.787C135.325 346.167 136.199 345.867 136.746 344.717C138.068 341.934 145.265 326.796 145.265 326.796Z" fill="#DEDCCE"/>
<path d="M143.879 329.711L146.651 323.881L134.964 317.981L132.192 323.811" fill="#454546"/>
<path d="M112.873 228.433C113.181 234.229 117.987 238.668 123.609 238.353C129.232 238.036 133.541 233.084 133.233 227.288C132.926 221.494 128.119 217.053 122.497 217.369C116.875 217.686 112.565 222.641 112.873 228.433Z" fill="#C6C5B5"/>
<path d="M116.85 228.309C117.039 231.87 119.991 234.595 123.443 234.4C126.897 234.207 129.544 231.164 129.354 227.605C129.166 224.047 126.213 221.322 122.76 221.514C119.308 221.71 116.662 224.752 116.85 228.309Z" fill="#454546"/>
<path d="M125.237 208.25C125.237 271.919 103.09 323.649 75.6573 323.649C48.2247 323.649 26.0771 271.919 26.0771 208.25H125.237Z" fill="#DDDDCE"/>
<path d="M106.439 242.926L104.304 284.626L75.6572 229.829L106.439 242.926Z" fill="#DDDDCE"/>
<path d="M125.198 215.454L119.051 262.412L128.66 304.791L104.304 284.626L106.439 242.926L125.198 215.454Z" fill="#D1D1C4"/>
<path d="M104.304 284.626L128.66 304.791L75.6572 332.247L104.304 284.626Z" fill="#C6C5B5"/>
<path d="M44.8765 242.926L47.0104 284.626L75.6572 229.829L44.8765 242.926Z" fill="#DDDDCE"/>
<path d="M26.1164 215.454L13.0459 262.412L22.6543 304.791L47.0101 284.626L44.8762 242.926L26.1164 215.454Z" fill="#D1D1C4"/>
<path d="M47.0102 284.626L22.6543 304.791L75.657 332.247L47.0102 284.626Z" fill="#C6C5B5"/>
<path d="M75.6573 215.454H125.198L106.439 242.926L75.6573 229.829L44.8765 242.926L26.1167 215.454H75.6573Z" fill="#E5E5D8"/>
<path d="M75.657 229.829L104.304 284.626H75.657H47.0103L75.657 229.829Z" fill="#FADF8D"/>
<path d="M75.657 284.626H104.304L75.657 332.247L47.0103 284.626H75.657Z" fill="#DDDDCE"/>
<path d="M55.2871 332.247H60.8826H68.0896H75.6573H83.225H90.432H96.0274L90.432 357.33L86.2414 342.744L75.6573 369.255L65.0731 342.744L60.8826 357.33L55.2871 332.247Z" fill="#E39C27"/>
<path d="M90.4319 332.247L75.6572 369.255V332.247H90.4319Z" fill="#E39C27"/>
<path d="M96.0276 332.247L90.4321 357.33V332.247H96.0276Z" fill="#E39C27"/>
<path d="M90.4321 332.247V357.33L83.2251 332.247H90.4321Z" fill="#EBB246"/>
<path d="M60.8823 332.247L75.657 369.255V332.247H60.8823Z" fill="#EBB246"/>
<path d="M55.2871 332.247L60.8826 357.33V332.247H55.2871Z" fill="#EBB246"/>
<path d="M60.8823 332.247V357.33L68.0893 332.247H60.8823Z" fill="#E39C27"/>
<path d="M63.7763 312.498L55.2871 332.248H75.6573L63.7763 312.498Z" fill="#454545"/>
<path d="M63.7763 312.498L55.2871 332.248H63.7763V312.498Z" fill="#222222"/>
<path d="M87.5382 312.498L96.0274 332.248H75.6572L87.5382 312.498Z" fill="#454545"/>
<path d="M87.5381 312.498L96.0272 332.248H87.5381V312.498Z" fill="#222222"/>
<path d="M75.6572 196.747H123.988V201.009H75.6572H27.3262V196.747H75.6572Z" fill="#454545"/>
<path d="M75.6571 208.208H125.567V215.453H75.6571H25.7476V208.208H75.6571Z" fill="#454545"/>
<path d="M75.6572 329.702H96.5409V334.959H75.6572H54.7734V329.702H75.6572Z" fill="#454545"/>
<path d="M63.3823 82.3794C63.3823 82.3794 77.3802 94.9483 78.1653 105.49C72.2245 110.558 72.2244 110.558 63.6721 110.383C75.9593 105.084 57.4155 82.7462 57.4155 82.7462L63.3823 82.3794Z" fill="#E5E5D8"/>
<path d="M60.2302 87.3589C64.3455 87.3589 67.6816 83.9207 67.6816 79.6795C67.6816 75.4382 64.3455 72 60.2302 72C56.1149 72 52.7788 75.4382 52.7788 79.6795C52.7788 83.9207 56.1149 87.3589 60.2302 87.3589Z" fill="#E5E5D8"/>
<path d="M60.2305 83.9044C62.4947 83.9044 64.3302 82.0127 64.3302 79.6792C64.3302 77.3458 62.4947 75.4541 60.2305 75.4541C57.9663 75.4541 56.1309 77.3458 56.1309 79.6792C56.1309 82.0127 57.9663 83.9044 60.2305 83.9044Z" fill="#454545"/>
<path d="M126.781 335.603L123.608 332.358C122.44 331.163 122.586 329.758 123.494 328.752C124.436 327.706 125.972 327.34 127.217 328.612C129.652 331.104 130.468 331.731 130.468 331.731C131.818 333.111 131.525 334.722 130.583 335.669C129.638 336.614 128.041 336.892 126.781 335.603Z" fill="#C4C4C3"/>
<path d="M122.53 340.013C121.06 338.51 120.978 338.426 120.108 337.536C118.939 336.34 119.182 334.835 120.088 333.83C121.033 332.784 122.56 332.441 123.805 333.713C125.19 335.131 126.156 336.118 126.156 336.118C127.531 337.525 127.257 339.146 126.324 340.091C125.39 341.036 123.795 341.307 122.53 340.013Z" fill="#C4C4C3"/>
<path d="M138.184 319.454C136.859 318.098 137.871 319.132 136.752 317.989C134.684 315.874 132.997 316.189 131.881 317.321C130.765 318.454 130.231 320.276 132.349 322.441C133.677 323.8 133.857 323.983 133.857 323.983C135.501 325.665 137.435 325.404 138.532 324.287C139.629 323.171 139.889 321.197 138.184 319.454Z" fill="#C4C4C3"/>
<path d="M134.801 326.282C134.801 326.282 133.527 324.871 131.249 322.541C128.296 319.519 123.692 323.69 126.744 326.811C127.686 327.775 130.524 330.679 130.524 330.679C131.994 332.181 133.726 331.762 134.76 330.626C135.795 329.491 136.129 327.639 134.801 326.282Z" fill="#C4C4C3"/>
<defs>
<clipPath id="clip0">
<rect width="112" height="112" fill="white" transform="translate(211)"/>
</clipPath>
</defs>
</svg>
